HIERARCHY
ROOT Hips
{
    OFFSET   0.000000   0.000000   0.000000
    CHANNELS 6 Xposition Yposition Zposition Zrotation Xrotation Yrotation
    JOINT Chest
    {
        OFFSET   0.000000   8.007240   0.000000
        CHANNELS 3 Zrotation Xrotation Yrotation
        JOINT Chest2
        {
            OFFSET   0.000000  22.077100   0.000000
            CHANNELS 3 Zrotation Xrotation Yrotation
            JOINT Neck
            {
                OFFSET   0.000000  23.254800   0.000000
                CHANNELS 3 Zrotation Xrotation Yrotation
                JOINT Head
                {
                    OFFSET   0.000000  14.370000   1.956600
                    CHANNELS 3 Zrotation Xrotation Yrotation
                    End Site
                    {
                        OFFSET   0.000000  19.566000   0.000000
                    }
                }
            }
            JOINT LeftCollar
            {
                OFFSET   3.911900  19.017000  -0.467064
                CHANNELS 3 Zrotation Xrotation Yrotation
                JOINT LeftShoulder
                {
                    OFFSET  10.383700   0.000000   0.000000
                    CHANNELS 3 Zrotation Xrotation Yrotation
                    JOINT LeftElbow
                    {
                        OFFSET  26.662100   0.001476   0.000517
                        CHANNELS 3 Zrotation Xrotation Yrotation
                        JOINT LeftWrist
                        {
                            OFFSET  28.869000  -0.000025  -0.000106
                            CHANNELS 3 Zrotation Xrotation Yrotation
                            JOINT LeftFinger0
                            {
                                OFFSET   2.044660  -2.323460   3.252850
                                CHANNELS 3 Zrotation Xrotation Yrotation
                                JOINT LeftFinger01
                                {
                                    OFFSET   3.088130   0.000000   0.000000
                                    CHANNELS 3 Zrotation Xrotation Yrotation
                                    JOINT LeftFinger02
                                    {
                                        OFFSET   2.639460   0.000000   0.000000
                                        CHANNELS 3 Zrotation Xrotation Yrotation
                                        End Site
                                        {
                                            OFFSET   2.582190   0.000000   0.000000
                                        }
                                    }
                                }
                            }
                            JOINT LeftFinger1
                            {
                                OFFSET   8.364480   0.000000   3.252850
                                CHANNELS 3 Zrotation Xrotation Yrotation
                                JOINT LeftFinger11
                                {
                                    OFFSET   4.646930   0.000000   0.000000
                                    CHANNELS 3 Zrotation Xrotation Yrotation
                                    JOINT LeftFinger12
                                    {
                                        OFFSET   2.323460   0.000000   0.000000
                                        CHANNELS 3 Zrotation Xrotation Yrotation
                                        End Site
                                        {
                                            OFFSET   2.273050   0.000000   0.000000
                                        }
                                    }
                                }
                            }
                            JOINT LeftFinger2
                            {
                                OFFSET   8.364490   0.000015   1.078090
                                CHANNELS 3 Zrotation Xrotation Yrotation
                                JOINT LeftFinger21
                                {
                                    OFFSET   5.111620   0.000000   0.000000
                                    CHANNELS 3 Zrotation Xrotation Yrotation
                                    JOINT LeftFinger22
                                    {
                                        OFFSET   2.788160   0.000016   0.000000
                                        CHANNELS 3 Zrotation Xrotation Yrotation
                                        End Site
                                        {
                                            OFFSET   2.727660   0.000000   0.000000
                                        }
                                    }
                                }
                            }
                            JOINT LeftFinger3
                            {
                                OFFSET   7.899780   0.000017  -1.078090
                                CHANNELS 3 Zrotation Xrotation Yrotation
                                JOINT LeftFinger31
                                {
                                    OFFSET   4.646930   0.000000   0.000000
                                    CHANNELS 3 Zrotation Xrotation Yrotation
                                    JOINT LeftFinger32
                                    {
                                        OFFSET   2.323470   0.000000   0.000000
                                        CHANNELS 3 Zrotation Xrotation Yrotation
                                        End Site
                                        {
                                            OFFSET   2.273050   0.000000   0.000000
                                        }
                                    }
                                }
                            }
                            JOINT LeftFinger4
                            {
                                OFFSET   7.435090   0.000000  -3.252850
                                CHANNELS 3 Zrotation Xrotation Yrotation
                                JOINT LeftFinger41
                                {
                                    OFFSET   3.717550   0.000000   0.000000
                                    CHANNELS 3 Zrotation Xrotation Yrotation
                                    JOINT LeftFinger42
                                    {
                                        OFFSET   1.858770   0.000000   0.000000
                                        CHANNELS 3 Zrotation Xrotation Yrotation
                                        End Site
                                        {
                                            OFFSET   1.818440   0.000000   0.000000
                                        }
                                    }
                                }
                            }
                        }
                    }
                }
            }
            JOINT RightCollar
            {
                OFFSET  -3.911900  19.017000  -0.467063
                CHANNELS 3 Zrotation Xrotation Yrotation
                JOINT RightShoulder
                {
                    OFFSET -10.383700   0.000019   0.000000
                    CHANNELS 3 Zrotation Xrotation Yrotation
                    JOINT RightElbow
                    {
                        OFFSET -26.662100   0.001175   0.000102
                        CHANNELS 3 Zrotation Xrotation Yrotation
                        JOINT RightWrist
                        {
                            OFFSET -28.869000   0.000016  -0.000079
                            CHANNELS 3 Zrotation Xrotation Yrotation
                            JOINT RightFinger0
                            {
                                OFFSET  -2.044660  -2.323490   3.252850
                                CHANNELS 3 Zrotation Xrotation Yrotation
                                JOINT RightFinger01
                                {
                                    OFFSET  -3.088140   0.000000   0.000000
                                    CHANNELS 3 Zrotation Xrotation Yrotation
                                    JOINT RightFinger02
                                    {
                                        OFFSET  -2.639460   0.000000   0.000000
                                        CHANNELS 3 Zrotation Xrotation Yrotation
                                        End Site
                                        {
                                            OFFSET  -2.582190   0.000000   0.000000
                                        }
                                    }
                                }
                            }
                            JOINT RightFinger1
                            {
                                OFFSET  -8.364480   0.000000   3.252850
                                CHANNELS 3 Zrotation Xrotation Yrotation
                                JOINT RightFinger11
                                {
                                    OFFSET  -4.646930   0.000000   0.000000
                                    CHANNELS 3 Zrotation Xrotation Yrotation
                                    JOINT RightFinger12
                                    {
                                        OFFSET  -2.323470   0.000000   0.000000
                                        CHANNELS 3 Zrotation Xrotation Yrotation
                                        End Site
                                        {
                                            OFFSET  -2.273050   0.000000   0.000000
                                        }
                                    }
                                }
                            }
                            JOINT RightFinger2
                            {
                                OFFSET  -8.364480   0.000000   1.078090
                                CHANNELS 3 Zrotation Xrotation Yrotation
                                JOINT RightFinger21
                                {
                                    OFFSET  -5.111620   0.000000   0.000000
                                    CHANNELS 3 Zrotation Xrotation Yrotation
                                    JOINT RightFinger22
                                    {
                                        OFFSET  -2.788160   0.000000   0.000000
                                        CHANNELS 3 Zrotation Xrotation Yrotation
                                        End Site
                                        {
                                            OFFSET  -2.727660   0.000000   0.000000
                                        }
                                    }
                                }
                            }
                            JOINT RightFinger3
                            {
                                OFFSET  -7.899780   0.000000  -1.078090
                                CHANNELS 3 Zrotation Xrotation Yrotation
                                JOINT RightFinger31
                                {
                                    OFFSET  -4.646930   0.000000   0.000000
                                    CHANNELS 3 Zrotation Xrotation Yrotation
                                    JOINT RightFinger32
                                    {
                                        OFFSET  -2.323470   0.000000   0.000000
                                        CHANNELS 3 Zrotation Xrotation Yrotation
                                        End Site
                                        {
                                            OFFSET  -2.273050   0.000000   0.000000
                                        }
                                    }
                                }
                            }
                            JOINT RightFinger4
                            {
                                OFFSET  -7.435090   0.000000  -3.252850
                                CHANNELS 3 Zrotation Xrotation Yrotation
                                JOINT RightFinger41
                                {
                                    OFFSET  -3.717550   0.000000   0.000000
                                    CHANNELS 3 Zrotation Xrotation Yrotation
                                    JOINT RightFinger42
                                    {
                                        OFFSET  -1.858770   0.000000   0.000000
                                        CHANNELS 3 Zrotation Xrotation Yrotation
                                        End Site
                                        {
                                            OFFSET  -1.818440   0.000000   0.000000
                                        }
                                    }
                                }
                            }
                        }
                    }
                }
            }
        }
    }
    JOINT LeftHip
    {
        OFFSET   9.783040   0.000000   0.000000
        CHANNELS 3 Zrotation Xrotation Yrotation
        JOINT LeftKnee
        {
            OFFSET   0.000032 -41.789100  -0.002222
            CHANNELS 3 Zrotation Xrotation Yrotation
            JOINT LeftAnkle
            {
                OFFSET   0.000087 -41.133200  -0.000135
                CHANNELS 3 Zrotation Xrotation Yrotation
                JOINT LeftToe
                {
                    OFFSET   0.000000  -6.358960  14.674500
                    CHANNELS 3 Zrotation Xrotation Yrotation
                    End Site
                    {
                        OFFSET   0.000000   0.000000   3.913200
                    }
                }
            }
        }
    }
    JOINT RightHip
    {
        OFFSET  -9.783040   0.000000   0.000000
        CHANNELS 3 Zrotation Xrotation Yrotation
        JOINT RightKnee
        {
            OFFSET   0.000047 -41.789100  -0.000896
            CHANNELS 3 Zrotation Xrotation Yrotation
            JOINT RightAnkle
            {
                OFFSET  -0.000117 -41.133300  -0.000248
                CHANNELS 3 Zrotation Xrotation Yrotation
                JOINT RightToe
                {
                    OFFSET   0.000000  -6.358970  14.674500
                    CHANNELS 3 Zrotation Xrotation Yrotation
                    End Site
                    {
                        OFFSET   0.000000   0.000000   3.913200
                    }
                }
            }
        }
    }
}
MOTION
Frames: 6
Frame Time:   0.016667
  3.271680  89.451500   0.045634  -2.559680  -7.063390   0.572438   0.631539   4.690900  -1.045080   1.355980   9.369110  -2.153030   1.062290  -1.048640   0.025807   1.756460  -2.121880   4.475180  -5.736050   1.997070   1.315000 -68.380300  18.097300  -9.867750  -2.277070  -4.172500 -10.309600   9.191400  -2.049990  13.434100  43.069300  35.102900 -67.079800 -27.090400   0.000101   0.000128  -8.541810  -0.001660   0.011948 -42.484400   8.099910  -8.747120 -35.266100  -0.002723  -0.005848 -25.296200  -0.003277  -0.004858 -33.785500   2.910680  -4.340080 -50.840700  -0.011725  -0.005073 -33.860000  -0.004725  -0.004115 -34.449600  -0.652594   0.973185 -51.682700   0.001331  -0.000587 -34.420700   0.000000  -0.000456 -48.053200  -3.783210   3.395480 -72.248900   0.001330   0.001527 -48.117800   0.009237   0.001346   9.337290  -0.247081  11.542100  68.076900   9.512120  -4.097390  -0.436250  -2.827390  11.466200  -6.872030 -12.968000   2.112270 -37.636700  34.282200  65.832400  34.661300  -0.004952   0.001618  12.343700  -0.003775   0.001432  42.469200  11.483200  12.284400  35.762000   0.006980   0.000539  25.775500   0.001241   0.001065  33.360400   4.848680   7.312120  50.518800  -0.012172   0.003852  33.636000   0.010678   0.012076  32.515700   1.967250   3.082520  48.852900  -0.012710   0.002407  32.536000   0.009961   0.002436  44.772000  -2.600940  -2.615680  67.247500  -0.003184   0.004491  44.786800   0.000595   0.009850   3.236960  11.730700  -0.548394   0.639925   0.543422   2.156880  -2.194820  -4.656970   0.282890   0.000000   0.000000   0.000000   0.228141   5.232580  -2.728560   1.165950   6.110220  -1.030620  -3.061970  -3.232890  -1.655740   0.000000   0.000000  -0.000000
  3.265640  89.451500   0.045521  -2.559390  -7.063390   0.574745   0.631495   4.690830  -1.046760   1.356020   9.368970  -2.156410   1.063530  -1.050370   0.025810   1.757540  -2.126340   4.467410  -5.740390   1.997110   1.315050 -68.389900  18.098000  -9.853220  -2.274510  -4.165180 -10.295400   9.185200  -2.050150  13.415100  43.068800  35.094600 -67.081700 -27.078500   0.000113   0.000129  -8.542150  -0.001666   0.011960 -42.478500   8.105370  -8.754560 -35.266200  -0.002712  -0.005843 -25.295800  -0.003271  -0.004850 -33.783400   2.925500  -4.362030 -50.840800  -0.011717  -0.005069 -33.860000  -0.004723  -0.004112 -34.449600  -0.652490   0.968373 -51.682500   0.001336  -0.000574 -34.420600   0.000000  -0.000440 -48.053100  -3.783180   3.395470 -72.248900   0.001336   0.001533 -48.117800   0.009232   0.001352   9.339280  -0.256834  11.542400  68.077400   9.524480  -4.097530  -0.434361  -2.827460  11.450500  -6.864890 -12.962300   2.112230 -37.625400  34.281700  65.845900  34.667800  -0.004941   0.001619  12.343500  -0.003775   0.001424  42.469200  11.483200  12.284600  35.762000   0.006981   0.000539  25.775500   0.001239   0.001062  33.360500   4.848670   7.312110  50.515300  -0.012170   0.003849  33.636100   0.010676   0.012075  32.515500   1.967130   3.082360  48.852600  -0.012719   0.002401  32.535800   0.009959   0.002433  44.771800  -2.600950  -2.615690  67.247200  -0.003185   0.004484  44.786600   0.000591   0.009847   3.244040  11.724100  -0.548433   0.640703   0.565054   2.162210  -2.204120  -4.666880   0.272823   0.000000   0.000000   0.000000   0.235230   5.407400  -2.727590   1.176540   5.938140  -1.030840  -3.066260  -3.232640  -1.656500  -0.000000   0.000000   0.000000
  3.254970  89.451500   0.045409  -2.558550  -7.063380   0.581589   0.631404   4.690720  -1.049930   1.356100   9.368700  -2.162760   1.066930  -1.055330   0.025813   1.761000  -2.137640   4.454160  -5.746780   1.997170   1.315100 -68.402600  18.098800  -9.838690  -2.271930  -4.157860 -10.281200   9.178660  -2.050380  13.386800  43.068500  35.084200 -67.080000 -27.066600   0.000136   0.000136  -8.542640  -0.001685   0.011973 -42.470700   8.110830  -8.762010 -35.266300  -0.002680  -0.005828 -25.295500  -0.003256  -0.004829 -33.781200   2.940320  -4.383990 -50.840800  -0.011699  -0.005061 -33.860100  -0.004720  -0.004099 -34.449500  -0.652343   0.963560 -51.682300   0.001351  -0.000539 -34.420400   0.000000  -0.000400 -48.053100  -3.783130   3.395420 -72.248800   0.001349   0.001549 -48.117800   0.009219   0.001367   9.342330  -0.271787  11.542700  68.078500   9.544200  -4.097760  -0.429172  -2.827650  11.422900  -6.854700 -12.951000   2.112150 -37.615400  34.278900  65.861600  34.678500  -0.004927   0.001620  12.343300  -0.003771   0.001411  42.469100  11.483200  12.284900  35.762000   0.006983   0.000534  25.775500   0.001237   0.001055  33.360600   4.848650   7.312060  50.509500  -0.012165   0.003838  33.636200   0.010673   0.012075  32.515300   1.967010   3.082190  48.852300  -0.012742   0.002385  32.535600   0.009955   0.002422  44.771500  -2.600960  -2.615700  67.246800  -0.003188   0.004464  44.786400   0.000580   0.009838   3.257100  11.717500  -0.548472   0.641449   0.586684   2.170250  -2.219680  -4.676800   0.254301  -0.000000   0.000000  -0.000000   0.242098   5.582230  -2.724450   1.187450   5.766060  -1.034310  -3.074020  -3.232380  -1.660390  -0.000000   0.000000  -0.000000
  3.245320  89.451500   0.048699  -2.557150  -7.066040   0.593634   0.631281   4.690560  -1.053520   1.356160   9.368330  -2.169980   1.072660  -1.064160   0.025802   1.766980  -2.155770   4.443150  -5.750630   1.997230   1.315070 -68.406400  18.105800  -9.839320  -2.273150  -4.164450 -10.281900   9.184410  -2.054230  13.372000  43.070200  35.083600 -67.064400 -27.069800   0.000162   0.000159  -8.542850  -0.001720   0.011972 -42.467400   8.107670  -8.761330 -35.266500  -0.002629  -0.005804 -25.297300  -0.003236  -0.004797 -33.781400   2.938270  -4.381330 -50.840800  -0.011671  -0.005048 -33.860000  -0.004717  -0.004073 -34.449500  -0.652282   0.963586 -51.682300   0.001376  -0.000482 -34.420500   0.000042  -0.000339 -48.053200  -3.783050   3.395350 -72.248900   0.001368   0.001576 -48.117800   0.009201   0.001390   9.343140  -0.280191  11.542700  68.080100   9.557060  -4.093700  -0.419968  -2.827920  11.398300  -6.851530 -12.936000   2.107260 -37.603800  34.267400  65.848700  34.687100  -0.004924   0.001598  12.344900  -0.003760   0.001400  42.463500  11.483200  12.285000  35.757200   0.006991   0.000518  25.771400   0.001240   0.001047  33.359600   4.848610   7.312000  50.503700  -0.012160   0.003821  33.635200   0.010671   0.012070  32.515400   1.967040   3.082240  48.852400  -0.012777   0.002360  32.535700   0.009949   0.002405  44.771400  -2.600990  -2.615710  67.246700  -0.003191   0.004431  44.786300   0.000562   0.009822   3.270590  11.736400  -0.548506   0.642142   0.559350   2.175750  -2.232290  -4.661730   0.235863   0.000000   0.000000   0.000000   0.247850   5.486020  -2.717710   1.186980   5.866360  -1.046510  -3.081560  -3.232370  -1.669310  -0.000000   0.000000  -0.000000
  3.234580  89.451400   0.054302  -2.555450  -7.070680   0.608745   0.631154   4.690450  -1.056890   1.356200   9.368070  -2.176730   1.079660  -1.074490   0.025785   1.775490  -2.176650   4.431250  -5.752430   1.997260   1.314920 -68.408800  18.121400  -9.841840  -2.275320  -4.175610 -10.284000   9.195350  -2.062430  13.360000  43.071600  35.085200 -67.052400 -27.073000   0.000192   0.000184  -8.542910  -0.001762   0.011971 -42.466100   8.104510  -8.760270 -35.266600  -0.002565  -0.005774 -25.300300  -0.003210  -0.004755 -33.781600   2.936220  -4.378680 -50.840700  -0.011637  -0.005031 -33.860000  -0.004713  -0.004040 -34.449700  -0.652263   0.963613 -51.682700   0.001407  -0.000412 -34.420700   0.000116  -0.000262 -48.053700  -3.783000   3.395270 -72.249600   0.001390   0.001610 -48.118200   0.009179   0.001418   9.342800  -0.288674  11.542200  68.085500   9.571150  -4.085810  -0.409838  -2.828360  11.370800  -6.850130 -12.922400   2.100560 -37.593000  34.254300  65.837400  34.694100  -0.004921   0.001561  12.347100  -0.003746   0.001390  42.458000  11.483200  12.285000  35.752500   0.006996   0.000496  25.767300   0.001247   0.001034  33.358500   4.848560   7.311920  50.500300  -0.012153   0.003799  33.634200   0.010669   0.012063  32.515700   1.967250   3.082520  48.852900  -0.012823   0.002327  32.536000   0.009941   0.002383  44.771300  -2.601010  -2.615740  67.246600  -0.003195   0.004387  44.786200   0.000539   0.009801   3.285130  11.755200  -0.548540   0.642864   0.532016   2.178540  -2.244870  -4.646660   0.215254   0.000000   0.000000   0.000000   0.259498   5.389810  -2.711640   1.186770   5.966660  -1.060760  -3.089730  -3.232410  -1.680680   0.000000   0.000000  -0.000000
  3.222200  89.451400   0.059047  -2.553590  -7.074750   0.625184   0.631066   4.690480  -1.058790   1.356180   9.368110  -2.180550   1.087230  -1.084010   0.025779   1.787840  -2.195790   4.417670  -5.751690   1.997020   1.313480 -68.411100  18.146400  -9.850580  -2.277660  -4.187390 -10.286200   9.207240  -2.075600  13.348700  43.074100  35.089500 -67.065900 -27.070400   0.000221   0.000193  -8.538810  -0.001803   0.011971 -42.473400   8.110370  -8.759660 -35.266500  -0.002496  -0.005742 -25.303300  -0.003179  -0.004710 -33.785500   2.942380  -4.387190 -50.847100  -0.011598  -0.005013 -33.864300  -0.004706  -0.004006 -34.454700  -0.652585   0.957303 -51.690300   0.001436  -0.000335 -34.425700   0.000186  -0.000171 -48.058800  -3.783010   3.395190 -72.257100   0.001414   0.001650 -48.123200   0.009155   0.001449   9.342880  -0.299775  11.537100  68.097000   9.589930  -4.077230  -0.401962  -2.834620  11.337400  -6.848020 -12.919200   2.098020 -37.582100  34.240700  65.852900  34.697100  -0.004910   0.001529  12.348000  -0.003731   0.001383  42.460200  11.483300  12.282900  35.754000   0.006995   0.000479  25.768400   0.001253   0.001016  33.360700   4.848510   7.311840  50.504200  -0.012143   0.003775  33.636300   0.010666   0.012056  32.520500   1.971400   3.088460  48.860300  -0.012875   0.002289  32.540900   0.009932   0.002354  44.772900  -2.601040  -2.615760  67.248900  -0.003202   0.004336  44.787700   0.000511   0.009776   3.299930  11.752000  -0.548602   0.643374   0.547547   2.177720  -2.256810  -4.652660   0.193339   0.000000   0.000000  -0.000000   0.272108   5.469890  -2.710210   1.191270   5.893270  -1.069200  -3.098260  -3.234290  -1.692870  -0.000000   0.000000   0.000000
